<svg id="Layer_1" data-name="Layer 1" xmlns="http://www.w3.org/2000/svg" viewBox="0 0 1894.41 898.07"><defs><style>.cls-1{fill:#112032;}.cls-2{fill:#a03b20;}.cls-3{fill:#31313d;}.cls-4{fill:#fdfdfd;}</style></defs><path class="cls-1" d="M191.09,493c9.21-12.28,18-24,26.76-35.7a39.71,39.71,0,0,1,6.84-7.23c14.66-11.91,30.1-22.57,47.69-29.78,3.37-1.38,6.88-2.87,10.44-3.27,6.68-.75,10.79-4.43,14.8-9.5,20.47-25.86,41.34-51.4,61.89-77.2,3.55-4.46,7.55-7.11,13.21-6.17,9.3,1.55,16-2,22-9.06s12.91-13,19.27-19.59c3.94-4.09,8.18-5.19,13.52-3,7.06,2.94,14.34,5.36,21.35,8.4,3.26,1.41,5.33.77,7.91-1.46q76.2-65.88,152.53-131.57c9.05-7.8,12.9-7.43,20.46,2q38.55,48.19,77,96.46c2.76,3.48,4.09,4.09,7.41.37q109-122.16,218.25-244.07A33.61,33.61,0,0,1,937,18c4.62-3.48,9.72-2.41,14.37,3q26.7,30.78,53.32,61.6,52.33,60.48,104.59,121c2.48,2.88,4.83,4.09,8.52,3.37,3.26-.63,6.66-.54,9.92-1.2,6.08-1.23,10,1.26,13.44,6.16q56.94,81.17,114,162.25c2.79,4,4.12,3.94,7.18.38,9.56-11.12,19.55-21.86,29.18-32.91,3.27-3.75,6.94-5.36,11.87-4.76,5.45.66,11,.69,16.41,1.56,3.59.59,5.81-.58,8.24-3,13.91-14.13,28-28.1,42-42.11,6-6,10.35-6.17,16.89-.6Q1447,343.9,1507.1,395.17a11.6,11.6,0,0,0,8.47,3.19c7.66-.23,15.33,0,23-.09a12.59,12.59,0,0,1,9.42,3.79c5.94,5.85,12.12,11.45,17.92,17.42,2.42,2.49,4.06,2.71,7.08.81,17.47-11,35.11-21.71,52.7-32.5,7.22-4.44,9.77-4.26,16.56,1.1q37.88,29.85,75.73,59.73a25.83,25.83,0,0,0,7.79,4.3c11.63,4,23.22,8.17,34.85,12.19a18.19,18.19,0,0,1,8.09,5.55q76.56,89.08,153.26,178c3.17,3.68,5.16,7.52,3,12.25-2.22,4.95-6.57,5.95-11.62,5.95q-934.62-.07-1869.26,0c-5,0-9.33-.87-11.69-5.82-2.28-4.79-.15-8.56,2.78-12.31q65.16-83.52,130.24-167.11c6.85-8.79,13.78-8.33,19.56,1.26Zm1221.2,126.88h-11.9c3.18,3.39,5.51,5.9,7.88,8.37.67.69,1.47,1.56,2.41.3.59-.78,1.57-2.08.73-2.59-2.67-1.64-.34-2.45.34-3.56.5-.83,2.09-1.49.45-2.66,2.39.91,2.13-1.31,3-2.4C1412.26,616.15,1411.69,617.37,1412.29,619.84Zm-771.53,15.9-.75,0,.87.06c7.49,8.16,13.13,7.71,20.73-1.7-3.47,0-6.89,0-10.31,0-.54,0-1.72-.11-1.49.63,1.38,4.55-2.15,2-3.21,2C644.67,636.79,642.72,636.1,640.76,635.74ZM948.9,613.46l-1.12-.14.53.77c-.15,1.91,2.91,2.64,2,4.62-1.54,3.2,3.7,5.1,1.46,8.47-.18.26,1.8,2.22,3,3.08,3.18,2.29-1.81,1.29-1,2.67,1.41,2.41,5.25,4.29,1.85,7.85,3,2,3,6.86,8.7,6.56,14.11-.75,28.28-.38,42.43-.43.45,0,.61,0,.45-.54l-2.61-.37c1.86-2.43,4.94-3.07,6.42-6.13h-5.53c1.91-2.86,5.57-3.5,6.26-6.6,1-4.39.93-9,3.78-12.93.64-.87,3.08-2.79,1-3.23-3.75-.81-.83-1.78-.42-2.56a39.75,39.75,0,0,1,2.23-3.37l-3.22-.33c5.62-7.42,6.74-16.92,12.12-24.6,1.15,6.86,8.48,10,9.67,17.43.44,2.74,1.34,7.05,4.53,9.29l.14-.08c-.31,1.92-3.7-1.06-2.88,1.44,1.33,4,3.47,7.67,3,12.23-.23,2.3,6,2.51,2.78,6.69-.14.19,1.64,3.89,3.42,3.49a6.61,6.61,0,0,0,4.54-4.28c1-2.92-2.77-.86-3-2.64,1.56-1.91,3.24-3.74,4.63-5.77,1-1.46,2.38-2.95,2.13-4.87-.27-2.1-3.22,0-3.79-2.14,3.68-3.84,7.31-7.71,9.65-12.55.23-.45.43-.94-.17-1.2-.15-.07-.49.29-.74.45h-4.83c2.5-3.51,5.89-6.15,7.38-10.41-2.52-.24-4.68,1.26-7,.56,2.7-3.18,7.21-6.1,7.58-9.48.49-4.45,3.28-7.1,4.6-10.71,1.19-3.21-1.82-.71-2.37-1.63l-.11-.11c5.15-6.2,10.18-12.47,11.21-21.07,4.67,10.37,12.06,17.9,18.52,26.07a2.6,2.6,0,0,1,.23.89c-1.17.72-2.55-.78-3.74.4,1.73,3.76,5.18,6.17,7.75,9.45l-4,.69c3.08,3.59,5.07,7.31,8.89,9.31l0,0c-2.72,2-5.18-1-8.22-.35,1.39,3.64,4.36,6.16,6.34,9.39l-4.32.84,7.75,10-5.37.54c2.21,2.36,4,4.3,5.82,6.17.6.61,1.3,1.83,2.31.64,1.4-1.63,2.9-3.43,2.87-5.63s-3-.35-3.93-2.22c3.9-3.95,7.72-8,10.08-13.43-2-.74-4,1-5.76-.38,2.36-3.2,5.65-5.46,6.61-9.36l.5-.63-.47,0,.1.73c-2-1.9-4.48,1.21-7.14-.9,8.22-3.43,7.57-12.29,12-18,2.29-3,.17-3.12-2-3.22l.12.1c5.34-6.15,10.17-12.59,11.44-21.09,5,10.09,11.56,18.29,18.64,26.16.16.18.09.56.13.82-1.13.65-2.57-.91-3.62.56,1.62,3.7,5,6,7.59,9.3l-3.88.39c1.88,4,5.51,6.32,7.64,9.83l.12-.08c-2.47,1.28-4.65-1.21-7.24-.53,1.21,3.65,4.37,6,6.29,9.51l-4,.42c1.48,4,5.31,6.4,6.89,10.15-1.4.87-3.12-.21-5.2,2.51l12,10H1163c3,4.16,6.21,7.6,8.58,12.44h-6c3.36,4.61,3.36,4.6,6.75,4.72,15.08.5,30.48,2,40.63-13.31-5-.42-9.94.12-16.13,1.07,2.7-2.16,4.5-3.56,6.27-5,3.46-2.84,6.93-5.69,10.35-8.59a3.33,3.33,0,0,0,1.29-3.1c-.32-1.64-1.85-.9-2.89-1.11-.7-.14-1.71.39-1.95-.92a38.42,38.42,0,0,0,8.54-10.9c1.35-2.67,2.09-4.89-2.35-4.54-.79.06-1.67.06-2.06-1.21,5.22-5.37,10.43-10.93,13.79-18.41l-8.89.87c4.08-4.79,8.22-8.62,10.61-14.33l-11,1.66c4.78-4.55,8.72-8.33,11.77-12.86.62-.92,2.47-2.4.66-3.11-3.51-1.35-.79-2.42-.09-3.4,2.18-3.09,4.84-5.9,5.58-9.81a6,6,0,0,0,.62-.53c-.4-.57-.75-.38-1,.12-1.84-.18-3.35,1.55-5.65.87,9.72-7.33,14.57-17.52,17.82-28.92,3,9.78,9,16.81,15.79,23.31a8.75,8.75,0,0,1,1.3,1.4c-3.8,4.7,2.42,4.38,3.48,6.63.84,1.8,3,3,5,4.71-2.78.64-4.52-1.33-6.74-.31,2.54,5.11,6.91,8.7,11.24,13.34h-6c3.38,5.52,7.72,9.57,11.9,14.17-4,.12-7.16-2.23-11.1-1.71,2.32,4.89,6.09,8.27,8.77,12.73l-5.76.35c2.8,5.16,6.75,9,10.21,13.64l-7.22.59c1.71,2,3,3.47,4.28,4.91,6.27,6.79,6.4,6.8,12.89.48,1.67-1.63,3.92-3.49,3-5.87s-3.79-.72-5.72-1.23l-1.84-.47a56.41,56.41,0,0,0,11.15-13.08c4.57-7.81,4.38-8.26-4.16-9.32-.22,0-.4-.45-.86-1,7.46-7.26,14.51-14.93,18.89-24.59l.36-1-1.13.13c-3.46.27-6.92,1.24-11,.59,6.14-5.8,11.12-11.64,14.85-19.26l-14.27,2.4c5.37-5.79,10.53-11.13,14.88-17.21,2.92-4.06,2.92-4.06-1.84-6.12,4.74-5.23,8.9-10.77,11.47-17.9-3.42.47-5.74,2.67-8.69,2l.1.1A154.31,154.31,0,0,0,1336.54,476c4.51-6.6,3.81-15.13,9-22.94,2.42,8.23,5.22,14.71,9.57,20.44s9.5,10.58,14.74,15.89c-1.5.79-3.26-.5-4.22,1.27l15.21,13.73-9.28-1.54c-.23-.19-.56-.59-.68-.54-.67.3-.35.78-.11,1.21,3.83,6.7,9.32,12,15,17.2-2.65,2.15-5.33.21-8.24.62a98.93,98.93,0,0,0,17.22,19.49l-.08-.16c-5.58,1.05-10.39-2.81-16.12-2.56,3.44,6.62,8.28,12,12.87,17.81-3,.78-5.68-.3-8.4.93,4.19,6.62,9.17,12.13,14,18.07-3.26,1.61-6.47.38-9.67,1.24a154.74,154.74,0,0,0,21.05,21.53c-4.46,1-8-1.15-12-.82l15.29,20.31,4.34-5.61c-1.15-1.17-2.56.26-3.08-.66,5.5-7.62,6.81-17,11.55-23.87,6.91,7.51,10.64,17.25,14.89,26.77-.78.61-2.13-1.53-3.61.47,4.6,1.63.63,7.32,4.73,9.52.37.19.73.94.07,1.08-3.33.68-.89,1.92-.21,2.71,1.18,1.39,2.58,2.6,3.83,3.83-.17,1.34-2.45-.17-2.06,1.65.53,2.46,6,3.91,1.5,7.41,3.19,1.71,2.73,6.95,8.36,6.83,21.31-.45,42.65-.43,64-.07,9.24.16,13.62-6.46,20.14-11.41-6-1.76-11,1-16.08-.17l-.07.16c4.83-3.81,9.69-7.59,14.48-11.46,1.41-1.14,3.19-2.56,2.7-4.46-.56-2.13-2.9-.57-4.3-1.21-.21-.1-.27-.52-.49-1a36.75,36.75,0,0,0,9-11.75c1.17-2.42.79-3.81-2.23-3.75-.89,0-2,.47-2.77-1.12a63.68,63.68,0,0,0,13.92-18.17l-8.89.41c4.34-4.5,8.08-8.4,10.56-14.11l-11.28,1.87a106.39,106.39,0,0,0,12.32-13c2.26-2.76,0-3.28-1.62-4.24,3.42-3.92,6.45-7.73,8.08-12.58-2.06-.43-3.39,1.51-5.59.33a49.25,49.25,0,0,0,16.53-28.43c3.52,10.65,10.33,18.26,18,25.24-.54,1-4.26.29-1.27,2.8s5.59,5.18,8.37,7.78l.14-.08c-2,1.6-3.92-.81-6.21.19,2.73,5,6.84,8.84,10.93,12.65-2,1.49-3.91-.15-5.56.88,3.19,5.29,7.67,9.39,12,14.17l-10.14-2-.93-.4.12,1.1,8.43,12.12-6,.57c2.69,3.44,5,6.22,7.14,9.2s3.64,2.68,5.06-.43c.45-1,1.61-1.74,1-3.16-1.55-.6-3.44.86-5.14-.45,2.6-3.28,5.69-5.9,7.07-9.86-2.41-.46-4.55,1.28-8.43-.24a25.16,25.16,0,0,0,3-1.34c7.15-4.55,6-13.78,11.46-19.26-1.83-1.38-3.1,1-4.64-.24,6.76-5.58,10.76-12.85,12.49-22.23a94.3,94.3,0,0,0,19.53,27.5l-.1-.11c-1.09,1.65-3.21-.81-4.31,1,1.79,3.63,5.07,6,7.7,9.22l-3.93.47c2.16,4,5.61,6.75,8.5,10.52l-6.79-1.31-1.15-.19.47.9c1.07,3.36,4,5.53,5.74,8.59l-4.26.86,7.73,10.08-5.22.46a93.23,93.23,0,0,0,11.44,11.9h-6.2c3,4,6.09,7.47,8.21,11.5-1.57,1.75-3.78-.1-5.28,1.48a22.85,22.85,0,0,0,6.14,6.4c3.55,2.62-.64,2.11-1.32,2.93,8.72,5.76,33.88,6.86,39.47,1.47h-8.87c5.33-3.37,9.73-6.27,13.81-10.51-4.46-.65-7.93.2-12.68.69,4.48-3.59,7.85-6.26,11.17-9,1.15-.94,2.61-2,2.17-3.65-.38-1.37-2.41-.07-3.38-1.15,1.86-2.43,3.84-4.66,5.42-7.14,2.57-4.07,2.38-4.33-2.53-5.66,3.72-4.22,7.93-8,10.06-13.71h-6c3-3.47,6-6.32,7.61-10.28-2.51-.42-4.64,1.33-7.19.21a9.66,9.66,0,0,1,1.46-1.51c7.27-4.66,6.39-13.87,11.6-19.59-1.74-1.29-3,1-4.39-.21a53.53,53.53,0,0,0,8.08-9.56c2.5-3.57,2.13-8.25,4.61-12a94.8,94.8,0,0,0,19.21,27l-.08-.16c-1.15,1.49-3.2-.89-4.35,1,1.81,3.6,5.07,6,7.64,9.18l-3.76.51c1.78,3.87,5.27,6.16,7.33,9.55-.15.14-.3.28-.44.43l-5.27-.75-1.15-.24c.15.33.29.65.43,1,1.16,3.26,4,5.46,5.74,8.61l-4.28.57,7.67,10.22-5.23.64c2.35,2.5,4.26,4.56,6.2,6.58.7.73,1.51,1.5,2.44.28s2.33-2.34,2.43-3.6c.11-1.47-2,.16-2.54-.68,5.2-7.59,6.55-16.83,11.42-23.76,6.89,7.2,10.75,16.93,14.76,26.68-.73.59-2-1.5-3.11-.33.19,2.14,2.53,3,2.7,5.18a59.74,59.74,0,0,0,1.22,8.54c.47,2,4.74,2.24,2.39,6.1-.82,1.35,5.42,3.75,1.41,7.26,3,2,2.75,6.84,8.46,6.75,28.32-.46,56.65-.21,85-.25,1,0,2.34.68,3.09-.82-.42-.52-.81-1-1.23-1.54q-68.14-79.19-136.25-158.38a13.49,13.49,0,0,0-6.08-4.08c-11-3.8-22-7.71-33-11.52a32,32,0,0,1-9.55-5.23c-23.75-18.83-47.62-37.52-71.34-56.39-2.62-2.09-4.44-2.49-7.33-.5-5.33,3.69-11,6.89-16.52,10.3l-13.38,8.26,43.63,6.92c-13.55,2.78-27,5.25-40.53,6.85-9.06,1.08-18,5.58-27.41,1.68-.56-.23-1.55.46-2.29.83-4.67,2.3-8.66,1.19-12.27-2.3-6.58-6.38-13.38-12.55-19.74-19.13a12.56,12.56,0,0,0-10.53-4.12c-6.49.32-13-.1-19.49.15a16.17,16.17,0,0,1-11.8-4.25c-19.18-16.53-38.51-32.9-57.78-49.32q-29.3-25-58.63-49.87c-1.12-.94-2.13-3.62-4.38-1.48-5,4.75-10,9.56-15.64,15l22.51,5.5a100.13,100.13,0,0,1-19,5.25c-11.87,1.85-22.28,5.92-29.72,16-2.67,3.62-6.77,4.32-11.2,3.75-4.75-.61-9.56-.87-14.34-1.28l0,.39,43.82,7a77,77,0,0,1-13,2.82c-15.46,2.42-30.88,5.24-46.41,7-5.11.6-9.29.95-11.56,6.52l47.35,7.49c-20.79,4.14-41.49,7.23-62.2,10.27a5.26,5.26,0,0,0-2.69.94c-8.6,6.56-12.33,5.95-18.57-2.91-37.57-53.36-75.33-106.59-112.51-160.22-5.63-8.13-10.87-12.92-21.07-9.73-6.55,2-11.14-1.08-15.5-6.15Q1022,132.44,945.59,44.24c-2.36-2.73-3.44-3.34-6.16-.21C926.85,58.48,914,72.65,901.2,87c-.73.82-1.93,1.43-1.63,3.2l60.87,7.28c-1.51,1.32-3.25,1.2-4.84,1.39-23.15,2.77-46.29,5.55-69.45,8.18a6.72,6.72,0,0,0-6.19,4.58l64.31,7.73c-25.78,3.7-51.55,6.8-77.34,9.8-2.73.32-5.24.58-6.24,4l66.49,8A128.26,128.26,0,0,1,912,143.6q-31.26,3.72-62.51,7.42c-3.26.39-7.17-.76-8.57,4.27l63.19,7.6c-25.74,3.79-51.35,6.9-77,9.91-2.74.32-4.74,1.12-5.58,4.18l63.33,7.59a3.24,3.24,0,0,1-2.45,1.35c-24.8,2.94-49.59,6-74.42,8.71-4.07.45-5.92,2.68-7.93,6l63.79,7.78-.2,1.3c-24.64,2.93-49.24,6.3-73.94,8.51-7.93.72-10.89,5.76-15.61,10.95l67.69,8.1c-9.86,1.86-19.74,3.18-29.65,4.22-17.54,1.84-34.94,4.95-52.6,5.68-2.53.11-3.33,1.37-3.94,3.47l67.11,8a26.13,26.13,0,0,1-3.28,1c-26.3,3.05-52.59,6.13-78.91,9a4.18,4.18,0,0,0-4.11,3.25l65.58,7.9C775.09,283.82,748.3,287,721.5,290a5.5,5.5,0,0,0-3.44,1.55c-6.67,6.1-11.55,5.74-17.18-1.28q-29.36-36.66-58.67-73.37c-7.38-9.24-14.75-18.49-22.2-27.68-.86-1.07-1.48-3.45-3.73-1.49-8.37,7.25-16.76,14.47-25.84,22.3l42.21,6.72c-19.24,3.86-38.28,7-57.4,9.7-4.76.67-7.76,3.1-11.27,6.7l43.22,6.91c-19.19,3.68-38.19,7.25-57.36,9.45-8.55,1-12.3,7.06-19.08,11.83l46.56,7.29c-2.14.61-3.05,1-4,1.12-15.62,2.45-31.24,4.94-46.89,7.23-4.74.69-9.68.93-14.24,1.84-5.75,1.15-9.12,7-14.4,11L543.37,297c-15.4,3.11-30.62,6.24-46,7.71-13.66,1.31-25.72,4.68-34.95,15.5-3.14,3.68-7.46,3.95-11.93,2.19-6.35-2.49-12.72-4.91-19.09-7.35-7.55-2.89-9.22-2.23-13.37,5.48L463,327.6c-2.34.64-3.26,1-4.21,1.14-13.32,2.09-26.69,3.9-39.95,6.31-8.6,1.56-18.1.35-25.13,7.57-1.29,1.33-3.72,1.2-5.76,1.17-3.66-.05-7.33,0-11,0-1.48,0-2.94-.14-4.05,1.29-3.11,4-6.31,7.92-9.85,12.34l46.29,7.33c-16.77,3.46-33.32,6.65-50,8.36-9.69,1-15.17,6-19.62,14l51.56,8.13c-13,2.69-25.9,4.94-38.9,6.69-8.86,1.19-17.53,4.08-26.66,3.06-1.78-.2-2.34,1.68-3.23,2.77-5.59,6.84-11.25,13.62-16.58,20.65-3.05,4-6.61,6.31-11.75,6.34a23.32,23.32,0,0,0-11.26,2.94L317,443.17c-19.52,3.73-39,7.26-58.59,9.62-8.12,1-12.43,6.51-19.68,10.67l45.43,7.17C266,474.39,248,477.31,230,479.93a11.6,11.6,0,0,0-8.5,5.1c-7.41,10.25-15.05,20.35-22.74,30.4-5.35,7-12.9,6.61-17.55-.78-2.39-3.8-4.67-7.66-7.26-11.93l-18.59,23.85,46.39,7.35c-17.28,3.48-34.41,6.92-51.71,8.62-9.34.91-12.55,7-17.27,13.45l48,7.55c-2.3.61-3.37,1-4.48,1.16Q149.66,568.87,123,573c-1.79.28-3.8.07-5.07,1.67-3.36,4.23-6.63,8.54-10.32,13.33l48.32,7.6a23.3,23.3,0,0,1-3,1.11q-27.15,4.2-54.29,8.39c-2.08.32-4.46,0-6,1.95-3.17,4-6.27,8.05-9.84,12.65l49.58,7.82c-.65,1.44-1.57,1.26-2.32,1.38-18.43,2.86-36.8,6.18-55.3,8.31-6.77.78-9.43,4.62-12.74,9.43a9.89,9.89,0,0,0,1.8.46l143,0a7.64,7.64,0,0,0,6.46-3.22h-9.17c5.31-3.35,9.66-6.22,13.83-10.48-4.38-.79-7.9.24-12.45.51,4.15-3.35,7.64-6.08,11-8.93,2.54-2.14,3.54-4.13-1.34-4.66,1.92-2.49,3.71-4.62,5.28-6.91.82-1.2,1.79-2.69,1.75-4-.06-2.12-2.94-.49-3.94-2.07,3.69-4.21,7.77-7.94,9.94-13.57h-6c2.82-3.6,6.17-6.15,7.27-10.3-2.69-.36-5.06,1.72-7.46,0l0,.06a19.7,19.7,0,0,0,7.32-7.35c2.15-3.7,1.94-8.52,5.19-11.85.46-.46,1.18-1.22.68-2.14-1.36-.82-2.54,1.4-4,.19a53.17,53.17,0,0,0,8.1-9.53c2.49-3.54,2.22-8.14,4.63-12,4.6,10.18,11.16,18.38,18.21,26.24.16.18.08.58.1.84-1.12.79-2.54-.88-3.74.57,2,3.43,4.88,6.18,8.22,9.26l-4.23.56c2.26,4.13,5.67,6.89,8.67,10.57L264,587.4l-1.24.09.68.53c.94,3.47,4,5.58,5.67,8.5-.85,1.46-3-.37-3.7,1.7l7.27,9.5-5.11.53c3.32,4.43,7.07,7.85,11.26,11.82h-6.38c3.08,2.27,3,6.6,7.25,6.63-1,1.94.69,3.5,1.11,5-1.75,1.5-3.85-.22-6.06,2.09,3.46.06,3.25,5.86,7.53,3.14a62.16,62.16,0,0,0,12.16-9.82c-5.18-1.41-10.05.84-14.83-.29,1.19-1.11,2.32-2.28,3.56-3.31,3.59-3,7.26-5.84,10.81-8.86,1-.84,1.94-2.06,1.57-3.49-.49-1.91-2.22-.77-3.37-1.09-.56-.15-1.36.14-1.37-1a40.41,40.41,0,0,0,8.73-11.33c1.53-3,1-4.38-2.56-4a2.07,2.07,0,0,1-2.34-1.2,61.43,61.43,0,0,0,14-18.24c-3-.56-5.46,1.18-8.48.11,3.87-4.3,7.85-8.13,10.17-13.8l-11,1.74c4.92-4.64,8.83-8.44,11.86-13,.57-.86,2.59-2.29.54-3.08-2.8-1.08-1.2-1.95-.33-3,2.55-3.19,5.05-6.4,6.29-10.74l-6.05.94c9.26-8.12,14.79-17.43,17.25-28.94,3.15,10.13,9.58,17.41,16.72,24.19.24.23.68.65.64.71C343,534,348.71,534,350,536.29c.93,1.67,2.87,2.78,4.63,4.38-2.72.71-4.6-1.33-6.83-.33,2.75,5.17,7.1,8.78,11.38,13.51h-6.06c3.46,5.33,7.52,9.43,12.23,14.27l-11.5-2.31c2.34,5.33,6.1,8.71,8.91,13.11l-5.68.35c2.41,5.31,6.87,8.74,9.71,13.67l-6.78.52a103.94,103.94,0,0,0,13,13.68c2.48,2.26,3.83-.34,4-1.49.89-7.22,5.9-12.64,8.11-19.45,1.31,6.95,8.8,10,9.93,17.48.42,2.75,1.43,7,4.47,9.32l.12-.07c-.73,1.45-2.15-.44-3.21.92,1.69,1.94,1.51,4.93,2.48,6.92,1.64,3.39.55,8.38,5.17,10.21-3,3.46,1.34,4.82,2.05,7.22a1.49,1.49,0,0,1-.06.86,5.92,5.92,0,0,0,5.67,8c8.83.08,17.66,0,26.49.06a6.33,6.33,0,0,0,6.35-3.89c-3.81-.53-7.24.08-11.23.64,3-3.58,6.61-5.65,9.7-8.31,2.5-2.15,5-4.24-.53-5.73,7.84-8.44,8.38-10.73,3-12.68,3.87-4.07,7.77-8,10-13.38-2.05-.79-3.82.74-5.77-.37,2.47-3.28,5.79-5.91,7.11-10.13-2.48-.22-4.62,1.37-7.08.46,2-2.16,4-4.17,5.8-6.27,1.09-1.25,3.13-3.48,2.85-3.84-2.86-3.79,1.7-5,2.35-7.49a4,4,0,0,1,.75-1.29c2.24-3-.13-2.81-2-2.91l.06.06c5.21-6.2,10.18-12.53,11.45-21.15,4,10.67,12.31,17.52,18.26,26a2.86,2.86,0,0,1,.25.89c-1.15.81-2.54-.74-3.73.44,1.79,3.71,5.19,6.16,7.84,9.57l-4,.42a56.39,56.39,0,0,0,8.23,9.61l.15-.05c-2.59,1.85-4.88-1.11-7.75-.39,1.36,3.61,4.33,6.13,6.38,9.4l-4.36.79,7.62,10-4.9.77c3.34,4.48,7.05,7.74,11.05,11.62H500c2.2,3,4.18,5.63,6.07,8.33.77,1.1,1.39,1.67,2.79.81a120.39,120.39,0,0,0,22.71-17.38c-8.09-1-15.15.5-23.27,1.29,7.24-5.77,13.62-10.81,19.94-15.92,2.2-1.78,5.13-3.84,4.36-6.77s-4.3-.84-6.47-1.57c-.12,0-.18-.24-.51-.71,3.95-4,8-8.1,10.85-13.14,4.33-7.59,4.28-7.78-4.21-8.87-.25,0-.47-.37-1.19-1,7.87-7.43,14.82-15.59,19.76-25.72l-13.12,1.42c6.6-6.29,11.73-12.16,15.53-19.93l-14.47,2.45c6.75-6.76,12.84-13.43,17.64-21.07-1.12-1.72-3.19-.57-4.15-2.27,2-2.55,4.11-5,5.94-7.76s3.78-5.49,4.59-8.8c.14-.38.27-.77.41-1.15l-1.24.17c-4.49,1.48-4.49,1.48-7,1.17C565,484.22,573.69,474,575.6,459.59c.27-2.07.88-4.29,3.81-5.32,3.33,14.65,13.15,25,23.73,34.82-1.39,1.13-3-.07-4.14,1.69l15,12.81,0,0c-3.31,1.75-6.29-1.53-10-.51,3.92,7,9.47,12.52,15.59,17.85-3,1.63-5.58.25-8.56.35,5,7.49,10.61,13.57,16,20l-15.39-3.67c4,7.08,8.49,12.57,13.72,18.75h-9.18c4.35,7,9.37,12.62,14.45,18.65-3.17,1.52-6.43.21-9.66,1.33a155.23,155.23,0,0,0,21,21.45c-4.49.76-7.93-1.15-12.05-.82,5.61,7.68,11.8,14.49,16.39,23.22H634.22c2.07,2.3,3.66,4.17,5.36,5.94,7.27,7.53,7.28,7.52,15.36,1.11,1.7-1.34,3.41-2.67,5.07-4.06s3.48-2.61,3.27-4.74c-.29-2.85-3.53-.25-4.88-2.23a38.91,38.91,0,0,0,9-11.73c1.08-2.28,1.08-3.89-2.13-3.77-.93,0-2,.38-2.82-1,5.29-5.48,10.6-11.11,13.87-18.38-2.87-.62-5.5,1.23-8.62.16,4.12-4.21,7.88-8.14,10.2-13.34-3.6-.8-6.63,1.43-10.51.73,4-3.38,7.5-6.51,9.87-10.46.8-1.34,6.47-3.26.66-5.88-.67-.3.71-1.56,1.29-2.28a35.16,35.16,0,0,0,6-9.71l.08-1.15-1,.47-3.39.64c-.16-.18-.33-.35-.5-.53a56.11,56.11,0,0,0,16.29-28.39c3.11,10.07,9.41,17.29,16.46,24a11.66,11.66,0,0,1,.94,1.08c-4.4,3.87,1.42,3.92,2.35,5.52,1.26,2.16,3.74,3.62,5.85,5.52-2.55.94-4.45-1.29-6.84-.34,2.68,5.17,7.09,8.9,11.07,13.06-2,1-3.73-.24-5.27,1.06,3,5.05,7.35,8.9,11.35,13.47-4,.09-7.22-2.23-11.11-1.81,2.33,4.89,6,8.42,8.95,12.79l-6.31.53,10.78,13.5-7.48.57c1.87,2.12,3.2,3.77,4.69,5.28,1,1,1.93,3.21,3.22,2.63,3.23-1.44,6.43-3.89,6.63-7.52s-3.46-1.4-5.31-2c-.6-.21-1.3-.08-1.63-1.07a53.51,53.51,0,0,0,11.9-15.07c2.82-5.6,2.45-6.21-3.94-6.49-.9,0-2.09.26-2.44-1.46a87.57,87.57,0,0,0,19.8-25.79,47.55,47.55,0,0,1-12.85,1.32c6.27-6,11.26-11.88,14.89-19.06-5.4-.67-10.1,2.92-15.27,1.44l-.07.16c6.2-4.63,11.15-10.45,15.91-16.48,2.37-3,3.75-5.37-1.94-6.18,5.12-5.58,9.15-11.13,11.81-18.28-3.21.52-5.52,2.65-8.86,1.49.43-.71,1.35-.9,1.92-1.44,9.32-8.86,17.13-18.6,18.92-32,.28-2.08.73-4.55,3.91-5.67,3.36,14.82,13.32,25.07,23.9,35-1.73.73-3.24-.36-4.19,1.42l15.29,13.81-10.85-2.13c4.22,7.62,9.87,13,15.74,18.41-2.41,1.61-4.59.52-6.67.66-.41-.06-1-.32-1.17-.16-.39.48.08.72.51.87,3.82,7.23,10.16,12.43,16,19.25l-16.33-3.76c4,7.07,8.46,12.53,13.17,18-2.84,1.14-5.6-.19-8.24,1.18,3.95,6.62,9,12.05,13.88,18.06-3.09,1.55-6.32.39-9.7,1.16a153.73,153.73,0,0,0,21,21.54c-4.34,1.08-7.88-1.16-12.2-.69,6.12,7.49,11.83,14.67,16.84,23.12H843.39c1.68,1.89,2.83,3.24,4,4.54,5.75,6.16,6.23,6.14,12.22.22,2.58-2.55,3.11-4.35-1.8-4.29,2-2.63,3.93-4.72,5.45-7,2.68-4.09,2.52-4.39-2-6.34,3.64-4.08,7.66-7.84,9.83-13.45h-5.9c2.69-3.59,6-6.14,7.18-10.27-2.73-.3-5.1,1.72-7.51.07v.05c3.72-2.32,8.21-5.73,8.32-9.22.16-4.76,3.81-7.15,4.47-11.09.16-.36.31-.71.47-1.06l-1.22.13c-.95-.15-1.81,1-3,.09,6.75-5.55,10.73-12.82,12.77-21.42,3.83,10.69,12.29,17.52,18.29,26.06a2.34,2.34,0,0,1,.16.85c-1.14.79-2.55-.82-3.8.59,2,3.41,4.86,6.16,8.19,9.23l-4.19.59c2.2,4.08,5.6,6.83,8.66,10.55l-7.12-1.43-1.27.07.69.56c.92,3.49,4,5.55,5.77,8.78l-4.38.66,7.78,10.15-4.9.63c3,4.63,7.22,7.58,10.8,11.94h-5.64c1.9,2.56,3.45,4.69,5.05,6.79.44.58.86,1.66,1.84.81.42-.37.81-1.55.67-1.66-3.41-2.62.68-3.41,1.22-5,.46-1.4,3-3.37,1.63-3.85-3.81-1.32-.74-2.4-.14-3.17,1.76-2.23,2.18-3.64-1.29-3.25,5.25-7.54,6.6-16.83,11.43-23.8,7,7.59,10.84,17.17,14.83,26.57ZM524,641.33a116.27,116.27,0,0,0-21.33,1.32C507.59,649.15,513.2,648.84,524,641.33ZM366.9,608.8c5.52,8.64,5.8,8.71,9.16,2.36C372.78,611.14,370.43,607.63,366.9,608.8Zm923.86,12.74c.47,1.91,1.46,4,2.83,3.84,1.63-.14,3.22-1.71,4-3.84ZM288.81,641.32c-3.56-.6-6.21,1.3-9.07.24C282.64,645.14,285.44,644.25,288.81,641.32Zm560-5.81c4.15,3.32,4.59,3.43,7.25,1.53C853.54,636.51,851.18,636,848.83,635.51Z" transform="translate(-31.48 -16.03)"/><path class="cls-2" d="M591.18,811.72c5.11-14.79,10.1-29.22,15.08-43.66,7.68-22.22,15.45-44.42,22.91-66.71,1.22-3.65,2.66-5.07,6.65-5q29.91.33,59.81,0c4.29-.05,5.38,1.16,5.37,5.4q-.19,101.61,0,203.22c0,4.16-.9,5.56-5.29,5.43-11.18-.33-22.38-.35-33.56,0-4.68.14-6-1-6-5.88.21-48.62.13-97.24.13-145.85v-6.9c-2.61,2.46-2.83,5-3.6,7.1q-21.59,60.07-43,120.25c-1.53,4.34-3.5,5.9-8.19,5.66-8.93-.46-17.9-.34-26.84,0-3.89.14-5.55-1.06-6.86-4.81-14.26-40.75-28.75-81.42-43.19-122.11-.66-1.87-1.39-3.71-2.22-5.91-2.53,2.1-1.5,4.48-1.5,6.45-.07,48.62-.15,97.24.08,145.86,0,5.16-1.29,6.39-6.3,6.19-10.77-.42-21.57-.27-32.34,0-3.48.08-4.35-1-4.34-4.37q.15-102.53,0-205.05c0-3.94,1.22-4.61,4.8-4.58,20.75.17,41.5.2,62.25,0,4,0,5.4,1.47,6.63,5.06q17.94,52,36.28,103.91C588.67,807.32,588.79,809.68,591.18,811.72Z" transform="translate(-31.48 -16.03)"/><path class="cls-2" d="M448.36,910.26c-15.19,0-30.38-.09-45.57.07-3.26,0-3.43-2-4-4.17-3.66-13.51-7.44-27-10.9-40.53-.9-3.52-2.18-4.94-6.09-4.9q-31.11.33-62.22,0c-3.91,0-5.24,1.52-6.13,4.86-3.58,13.31-7.56,26.52-10.87,39.9-1,4.12-2.8,4.94-6.62,4.87-12.2-.23-24.41-.3-36.6,0-4.9.12-5-1.19-3.73-5.43q29.85-98,59.4-196.11c3.7-12.21,3.73-12.2,16.27-12.2,16.06,0,32.13.09,48.19-.08,3.07,0,4.67.64,5.62,3.77q31.54,104.17,63.25,208.29A7.64,7.64,0,0,1,448.36,910.26Zm-97.6-180.81c-7.09,31.31-16.48,61.8-25,92.67h49.93C367.37,791,358,760.57,350.76,729.45Z" transform="translate(-31.48 -16.03)"/><path class="cls-2" d="M751.56,803.26c0-33.54.14-67.08-.14-100.62,0-5.24,1.43-6.2,6.34-6.14,23.78.29,47.57.07,71.35.21a106.08,106.08,0,0,1,30.61,4.53c22.44,6.85,35.64,21.85,39.14,44.94,2.22,14.61,1.46,29.25-3.51,43.32-8.81,24.89-27.76,37.48-52.66,42.65-12.64,2.62-25.44,2.77-38.24,2.31-4.89-.17-6.52.84-6.44,6.15.35,21.54.06,43.09.23,64.64,0,3.78-.66,5.23-4.87,5.12q-18.29-.47-36.59,0c-4.24.11-5.36-.94-5.33-5.27C751.65,871.15,751.56,837.21,751.56,803.26Zm46.6-37.66c0,8.94.05,17.88,0,26.82,0,2.53.16,4.21,3.48,4.17,8.74-.11,17.5.2,26.14-1.34,14.21-2.54,21.51-9.64,23.56-22.55,2.94-18.43-4.71-31.79-20.54-35.35C821,735.15,811,736,801,735.88c-3.27-.06-2.85,2.11-2.85,4.12Q798.15,752.8,798.16,765.6Z" transform="translate(-31.48 -16.03)"/><path class="cls-2" d="M131.36,802c.16,14.52,1.49,28.18,6,41.44,13.38,39.2,56.83,36.07,75.08,16.88,3.48-3.66,5.13-4.15,8.3.36,5.95,8.46,12.48,16.53,19.07,24.53,2.5,3,2.09,4.76-.63,7.29-9.95,9.24-21.77,14.69-34.76,17.91a120.55,120.55,0,0,1-56.77.58c-28.53-6.62-47.47-24.48-56.27-52-11.32-35.41-11.45-71.29.81-106.55,12.43-35.74,40.73-56.29,78.5-58.08,22.13-1.05,43.41,2,62.36,14.59,13.31,8.81,13.23,8.91,2.63,20.61-6,6.63-12.15,13.15-17.9,20-2.65,3.17-4,3.07-6.69,0-12.56-14.45-28.82-18.33-47-14.7-12.53,2.5-20.5,11-25.38,22.48C132.59,771.78,131.68,787.17,131.36,802Z" transform="translate(-31.48 -16.03)"/><path class="cls-3" d="M1710.26,774.73c15.66-17.6,34.45-23.72,56.07-20.43,23.75,3.6,38.84,20.2,39.28,44.27.67,36.21.51,72.45,0,108.67-.11,7.44-7.16,1.74-10.79,3.09-2.09.79-5.65,1.59-5.58-3.48.24-17.44.09-34.89.09-52.34,0-15.18.07-30.35,0-45.52a70.63,70.63,0,0,0-1-13.58c-4.14-20.06-20.2-29.82-42.23-25.76a46.65,46.65,0,0,0-27.61,15.67c-5.47,6.35-8.48,13.23-8.36,22.11.45,32.42.08,64.86.29,97.29,0,4.54-.75,6.14-5.71,5.94-10.91-.42-10.92-.12-10.92-11q0-99.86-.12-199.71c0-4.84,1.28-6,5.94-5.81,10.69.35,10.7.09,10.7,11.05Z" transform="translate(-31.48 -16.03)"/><path class="cls-3" d="M1223.49,840.55c-15,0-30,.11-44.92-.09-3.58,0-4.62.89-4.13,4.48,1.13,8.25,2.23,16.46,5.13,24.36,6,16.48,18,25.28,35.08,27.4,15.8,2,31-.08,44.77-8.74,2.59-1.63,3.31-.78,4.59,1.37,6.82,11.48,6.84,11.78-5.73,16.85-19.06,7.69-38.67,8.73-58.5,3.81-17.22-4.28-29.42-15-35.21-31.67-9.67-27.82-10.66-56.19-.61-84.07,11.74-32.56,46.22-48.06,78.77-36.09,20,7.37,28.69,23.39,31.69,43.42,1.75,11.76.23,23.46-.13,35.19-.11,3.53-1.9,3.83-4.73,3.82C1254.2,840.5,1238.85,840.55,1223.49,840.55Zm-7.74-15.38c12.71,0,25.42-.12,38.12.08,3.38,0,4.83-.71,4.55-4.34-.3-4,.16-8-.18-11.94-1.18-13.41-4.4-26-16.93-33.59-19.51-11.86-46.61-4.79-58.09,14.93-5.66,9.73-7.5,20.49-8.89,31.43-.47,3.63,1.43,3.46,3.87,3.45C1190.72,825.14,1203.24,825.17,1215.75,825.17Z" transform="translate(-31.48 -16.03)"/><path class="cls-3" d="M1414.26,836.22c0,14.4-.14,28.81.08,43.2a21.64,21.64,0,0,0,5.48,14.58,12,12,0,0,0,10.17,4.11c3-.24,3.73,1,3.78,3.84.21,10.19-.94,11.2-11.17,9.17-9.13-1.81-16.19-6.49-19.9-15.16-1.87-4.36-3.12-2.63-5.27-.42-16.73,17.25-37.1,22.11-59.85,16-14.87-4-24.52-14.24-27.78-29.38-3.43-16,1.2-29.7,14-40.1,14.1-11.45,31.18-14.83,48.61-16.89a164,164,0,0,1,22.7-1.16c1.7,0,3.42.35,3.33-2.41-.34-10.2.91-20.5-1.71-30.56-3.15-12.09-10.88-18.86-23.65-20.39-17.9-2.14-34.06.85-45.58,16.48-.34.46-.81,1.3-1.07,1.25-4.87-1-7.31-5.4-11.07-8-2.68-1.84-.43-3.28.6-4.58,8.5-10.66,19.69-17.06,32.9-19.74a72.61,72.61,0,0,1,37.06,1.65c16.64,5.33,25.46,17.15,27.25,34.14C1414.73,806.62,1413.42,821.44,1414.26,836.22Zm-15.84,21.54c0-4.92-.2-9.86.06-14.77.19-3.47-.55-5-4.49-4.87-9.67.28-19.34.49-28.86,2.23-10.09,1.84-20,4.49-28.36,10.8-8.59,6.47-12.59,15.09-10.79,25.79,1.87,11.13,8.48,18.54,19.49,21.21,18,4.37,33.12-1.35,46.21-13.75,4.73-4.47,8-9.38,6.83-16.42C1398,864.66,1398.42,861.17,1398.42,857.76Z" transform="translate(-31.48 -16.03)"/><path class="cls-3" d="M1029,881.35c16.22,14.47,34.92,18.89,55.64,14.28,12.59-2.79,20.36-11.53,21.56-22.67,1-9.14-2.38-16.24-9.77-21.58s-16.13-8.22-24.61-11.42c-7.07-2.67-14.18-5.23-20.91-8.72-15.13-7.83-23.9-19.6-22.79-37.24,1.12-18,11.34-29.57,27.59-35.33,21.17-7.52,41.71-5.29,60.84,7.1,3.58,2.32,4.51,4.41.88,7.63-2.53,2.24-4.1,6.18-6.92,7.31-3.11,1.25-5.27-3.07-8.11-4.57-12.73-6.73-26-7.81-39.65-3.89-10.09,2.91-16.76,9.55-18.09,20.36s3.82,18.11,12.65,23.49c7.32,4.46,15.41,7.14,23.36,10.14s16,5.91,23.24,10.43c24.45,15.19,25.75,48.18,2.54,65.39-12,8.89-25.82,11.35-40.35,10.66-16-.76-30.88-5.18-44-14.88-3.1-2.31-4.29-4.11-.86-7.3C1024.17,887.86,1026.41,884.49,1029,881.35Z" transform="translate(-31.48 -16.03)"/><path class="cls-3" d="M1554.26,840.47c.12-18.61,1.61-32.66,6.63-46.17,10.72-28.83,36-43.7,66.47-39.21,10.26,1.52,19.91,4.39,28.33,10.73,2.39,1.8,3.85,3.19,1,6s-4.82,7.79-8.23,9.15-6.18-3.74-9.52-5.61c-24.89-13.94-54.36-2.74-62.86,24.69a113.44,113.44,0,0,0-.3,66.68c9,30.4,43.7,41.12,68.89,21.56,2.66-2.06,3.69-1.52,5.11.8a26.39,26.39,0,0,0,1.73,2.25c6.83,8.78,7,9.37-3.33,14.24-20.42,9.6-41.52,10.55-62.08,1.08-18.35-8.45-25.82-25.19-29.49-43.95A118.75,118.75,0,0,1,1554.26,840.47Z" transform="translate(-31.48 -16.03)"/><path class="cls-3" d="M1488,773.1c8.75-10.52,19.16-16.12,31.59-17.94a70.75,70.75,0,0,1,21,.36c1,.16,2.73-.19,2.79,1.26a158.9,158.9,0,0,1,0,15.89c-.14,2.11-2.07.59-3.15.36-10-2.08-19.9-2.33-29.74.87a36.39,36.39,0,0,0-14.11,8.19c-5.24,5-8.24,10.59-8.15,18.41.37,34.88.06,69.77.28,104.66,0,4.53-1.22,5.59-5.58,5.47-11-.3-11.06-.08-11.06-11.36q0-68.53.08-137.08c0-1.93-1.74-5.94,2.68-5.14,3.56.64,9.16-3.65,10.46,3.76C1485.67,764.5,1486.77,768.11,1488,773.1Z" transform="translate(-31.48 -16.03)"/><path class="cls-4" d="M562.78,493.34c-.81,3.31-2.74,6.05-4.59,8.8s-4,5.21-5.94,7.76c1,1.7,3,.55,4.15,2.27-4.8,7.64-10.89,14.31-17.64,21.07l14.47-2.45c-3.8,7.77-8.93,13.64-15.53,19.93l13.12-1.42c-4.94,10.13-11.89,18.29-19.76,25.72.72.61.94,1,1.19,1,8.49,1.09,8.54,1.28,4.21,8.87-2.87,5-6.9,9.12-10.85,13.14.33.47.39.67.51.71,2.17.73,5.68-1.45,6.47,1.57s-2.16,5-4.36,6.77c-6.32,5.11-12.7,10.15-19.94,15.92,8.12-.79,15.18-2.33,23.27-1.29a120.39,120.39,0,0,1-22.71,17.38c-1.4.86-2,.29-2.79-.81-1.89-2.7-3.87-5.33-6.07-8.33h5.95c-4-3.88-7.71-7.14-11.05-11.62l4.9-.77-7.62-10,4.36-.79c-2-3.27-5-5.79-6.38-9.4,2.87-.72,5.16,2.24,7.74.39l-.55.52.55.36-.14-.83a56.39,56.39,0,0,1-8.23-9.61l4-.42c-2.65-3.41-6.05-5.86-7.84-9.57,1.19-1.18,2.58.37,3.73-.44a2.86,2.86,0,0,0-.25-.89c-5.95-8.51-14.29-15.36-18.26-26-1.27,8.62-6.24,15-11.45,21.15l-1.14.43c.2.11.41.32.6.3.44,0,.87-.2.48-.79,1.92.1,4.29-.13,2,2.91a4,4,0,0,0-.75,1.29c-.65,2.48-5.21,3.7-2.35,7.49.28.36-1.76,2.59-2.85,3.84-1.84,2.1-3.79,4.11-5.8,6.27,2.46.91,4.6-.68,7.08-.46-1.32,4.22-4.64,6.85-7.11,10.13,1.95,1.11,3.72-.42,5.77.37-2.25,5.33-6.15,9.31-10,13.38,5.4,2,4.86,4.24-3,12.68,5.52,1.49,3,3.58.53,5.73-3.09,2.66-6.71,4.73-9.7,8.31,4-.56,7.42-1.17,11.23-.64a6.33,6.33,0,0,1-6.35,3.89c-8.83-.09-17.66,0-26.49-.06a5.92,5.92,0,0,1-5.67-8,1.49,1.49,0,0,0,.06-.86c-.71-2.4-5-3.76-2.05-7.22-4.62-1.83-3.53-6.82-5.17-10.21-1-2-.79-5-2.48-6.92,1.06-1.36,2.48.53,3.21-.92,0,.22-.06.44-.08.66l.59-.12-.63-.47c-3-2.34-4.05-6.57-4.47-9.32-1.13-7.43-8.62-10.53-9.93-17.48-2.21,6.81-7.22,12.23-8.11,19.45-.14,1.15-1.49,3.75-4,1.49a103.94,103.94,0,0,1-13-13.68l6.78-.52c-2.84-4.93-7.3-8.36-9.71-13.67l5.68-.35c-2.81-4.4-6.57-7.78-8.91-13.11l11.5,2.31c-4.71-4.84-8.77-8.94-12.23-14.27h6.06c-4.28-4.73-8.63-8.34-11.38-13.51,2.23-1,4.11,1,6.83.33-1.76-1.6-3.7-2.71-4.63-4.38-1.25-2.25-7-2.25-3.67-6.88,0-.06-.4-.48-.64-.71-7.14-6.78-13.57-14.06-16.72-24.19-2.46,11.51-8,20.82-17.25,28.94l6.05-.94c-1.24,4.34-3.74,7.55-6.29,10.74-.87,1.08-2.47,2,.33,3,2.05.79,0,2.22-.54,3.08-3,4.53-6.94,8.33-11.86,13l11-1.74c-2.32,5.67-6.3,9.5-10.17,13.8,3,1.07,5.52-.67,8.48-.11a61.43,61.43,0,0,1-14,18.24,2.07,2.07,0,0,0,2.34,1.2c3.55-.33,4.09,1,2.56,4a40.41,40.41,0,0,1-8.73,11.33c0,1.1.81.81,1.37,1,1.15.32,2.88-.82,3.37,1.09.37,1.43-.58,2.65-1.57,3.49-3.55,3-7.22,5.88-10.81,8.86-1.24,1-2.37,2.2-3.56,3.31l.1-.12c-4.25,0-4.18-4.35-7.26-6.62h6.38c-4.19-4-7.94-7.39-11.26-11.82l5.11-.53-7.27-9.5c.72-2.07,2.85-.24,3.7-1.7-1.7-2.92-4.73-5-5.67-8.5a3.31,3.31,0,0,0,.56-.62l7.16,1.47c-3-3.68-6.41-6.44-8.67-10.57l4.23-.56c-3.34-3.08-6.19-5.83-8.22-9.26,1.2-1.45,2.62.22,3.74-.57,0-.26.06-.66-.1-.84-7-7.86-13.61-16.06-18.21-26.24-2.41,3.91-2.14,8.51-4.63,12a53.17,53.17,0,0,1-8.1,9.53c1.44,1.21,2.62-1,4-.19.5.92-.22,1.68-.68,2.14-3.25,3.33-3,8.15-5.19,11.85a19.7,19.7,0,0,1-7.32,7.35l0-.06c2.4,1.69,4.77-.39,7.46,0-1.1,4.15-4.45,6.7-7.27,10.3h6c-2.17,5.63-6.25,9.36-9.94,13.57,1,1.58,3.88-.05,3.94,2.07,0,1.33-.93,2.82-1.75,4-1.57,2.29-3.36,4.42-5.28,6.91,4.88.53,3.88,2.52,1.34,4.66-3.4,2.85-6.89,5.58-11,8.93,4.55-.27,8.07-1.3,12.45-.51-4.17,4.26-8.52,7.13-13.83,10.48h9.17a7.64,7.64,0,0,1-6.46,3.22l-143,0a9.89,9.89,0,0,1-1.8-.46c3.31-4.81,6-8.65,12.74-9.43,18.5-2.13,36.87-5.45,55.3-8.31.75-.12,1.67.06,2.32-1.38l-49.58-7.82c3.57-4.6,6.67-8.66,9.84-12.65,1.53-1.92,3.91-1.63,6-1.95q27.14-4.23,54.29-8.39a23.3,23.3,0,0,0,3-1.11L107.61,588c3.69-4.79,7-9.1,10.32-13.33,1.27-1.6,3.28-1.39,5.07-1.67q26.66-4.14,53.3-8.29c1.11-.17,2.18-.55,4.48-1.16l-48-7.55c4.72-6.42,7.93-12.54,17.27-13.45,17.3-1.7,34.43-5.14,51.71-8.62l-46.39-7.35,18.59-23.85c2.59,4.27,4.87,8.13,7.26,11.93,4.65,7.39,12.2,7.79,17.55.78,7.69-10,15.33-20.15,22.74-30.4a11.6,11.6,0,0,1,8.5-5.1c18-2.62,36.05-5.54,54.16-9.3l-45.43-7.17c7.25-4.16,11.56-9.69,19.68-10.67,19.6-2.36,39.07-5.89,58.59-9.62l-34.14-5.45a23.32,23.32,0,0,1,11.26-2.94c5.14,0,8.7-2.32,11.75-6.34,5.33-7,11-13.81,16.58-20.65.89-1.09,1.45-3,3.23-2.77,9.13,1,17.8-1.87,26.66-3.06,13-1.75,25.94-4,38.9-6.69l-51.56-8.13c4.45-8,9.93-13.05,19.62-14,16.7-1.71,33.25-4.9,50-8.36L363,357.41c3.54-4.42,6.74-8.34,9.85-12.34,1.11-1.43,2.57-1.28,4.05-1.29,3.67,0,7.34,0,11,0,2,0,4.47.16,5.76-1.17,7-7.22,16.53-6,25.13-7.57,13.26-2.41,26.63-4.22,39.95-6.31.95-.15,1.87-.5,4.21-1.14L418,320.55c4.15-7.71,5.82-8.37,13.37-5.48,6.37,2.44,12.74,4.86,19.09,7.35,4.47,1.76,8.79,1.49,11.93-2.19,9.23-10.82,21.29-14.19,34.95-15.5,15.38-1.47,30.6-4.6,46-7.71l-45.57-7.24c5.28-4,8.65-9.81,14.4-11,4.56-.91,9.5-1.15,14.24-1.84,15.65-2.29,31.27-4.78,46.89-7.23.94-.14,1.85-.51,4-1.12l-46.56-7.29c6.78-4.77,10.53-10.85,19.08-11.83,19.17-2.2,38.17-5.77,57.36-9.45L564,233.15c3.51-3.6,6.51-6,11.27-6.7,19.12-2.67,38.16-5.84,57.4-9.7L590.44,210c9.08-7.83,17.47-15.05,25.84-22.3,2.25-2,2.87.42,3.73,1.49,7.45,9.19,14.82,18.44,22.2,27.68q29.34,36.67,58.67,73.37c5.63,7,10.51,7.38,17.18,1.28A5.5,5.5,0,0,1,721.5,290c26.8-3,53.59-6.18,80.49-10.12L736.41,272a4.18,4.18,0,0,1,4.11-3.25c26.32-2.91,52.61-6,78.91-9a26.13,26.13,0,0,0,3.28-1l-67.11-8c.61-2.1,1.41-3.36,3.94-3.47,17.66-.73,35.06-3.84,52.6-5.68,9.91-1,19.79-2.36,29.65-4.22l-67.69-8.1c4.72-5.19,7.68-10.23,15.61-10.95,24.7-2.21,49.3-5.58,73.94-8.51l.2-1.3-63.79-7.78c2-3.35,3.86-5.58,7.93-6,24.83-2.74,49.62-5.77,74.42-8.71a3.24,3.24,0,0,0,2.45-1.35L821.53,177c.84-3.06,2.84-3.86,5.58-4.18,25.63-3,51.24-6.12,77-9.91l-63.19-7.6c1.4-5,5.31-3.88,8.57-4.27q31.26-3.68,62.51-7.42a128.26,128.26,0,0,0,15.2-2.48l-66.49-8c1-3.43,3.51-3.69,6.24-4,25.79-3,51.56-6.1,77.34-9.8L880,111.58a6.72,6.72,0,0,1,6.19-4.58c23.16-2.63,46.3-5.41,69.45-8.18,1.59-.19,3.33-.07,4.84-1.39l-60.87-7.28c-.3-1.77.9-2.38,1.63-3.2C914,72.65,926.85,58.48,939.43,44c2.72-3.13,3.8-2.52,6.16.21q76.26,88.35,152.6,176.61c4.36,5.07,9,8.19,15.5,6.15,10.2-3.19,15.44,1.6,21.07,9.73,37.18,53.63,74.94,106.86,112.51,160.22,6.24,8.86,10,9.47,18.57,2.91a5.26,5.26,0,0,1,2.69-.94c20.71-3,41.41-6.13,62.2-10.27l-47.35-7.49c2.27-5.57,6.45-5.92,11.56-6.52,15.53-1.8,31-4.62,46.41-7a77,77,0,0,0,13-2.82l-43.82-7,0-.39c4.78.41,9.59.67,14.34,1.28,4.43.57,8.53-.13,11.2-3.75,7.44-10.08,17.85-14.15,29.72-16a100.13,100.13,0,0,0,19-5.25l-22.51-5.5c5.68-5.45,10.63-10.26,15.64-15,2.25-2.14,3.26.54,4.38,1.48q29.39,24.86,58.63,49.87c19.27,16.42,38.6,32.79,57.78,49.32a16.17,16.17,0,0,0,11.8,4.25c6.49-.25,13,.17,19.49-.15a12.56,12.56,0,0,1,10.53,4.12c6.36,6.58,13.16,12.75,19.74,19.13,3.61,3.49,7.6,4.6,12.27,2.3.74-.37,1.73-1.06,2.29-.83,9.41,3.9,18.35-.6,27.41-1.68,13.54-1.6,27-4.07,40.53-6.85l-43.63-6.92,13.38-8.26c5.52-3.41,11.19-6.61,16.52-10.3,2.89-2,4.71-1.59,7.33.5,23.72,18.87,47.59,37.56,71.34,56.39a32,32,0,0,0,9.55,5.23c11,3.81,22,7.72,33,11.52a13.49,13.49,0,0,1,6.08,4.08q68.07,79.23,136.25,158.38c.42.49.81,1,1.23,1.54-.75,1.5-2.08.82-3.09.82-28.33,0-56.66-.21-85,.25-5.71.09-5.5-4.75-8.46-6.75,4-3.51-2.23-5.91-1.41-7.26,2.35-3.86-1.92-4.07-2.39-6.1a59.74,59.74,0,0,1-1.22-8.54c-.17-2.2-2.51-3-2.7-5.18,1.08-1.17,2.38.92,3.11.33-4-9.75-7.87-19.48-14.76-26.68-4.87,6.93-6.22,16.17-11.42,23.76.52.84,2.65-.79,2.54.68-.1,1.26-1.54,2.43-2.43,3.6s-1.74.45-2.44-.28c-1.94-2-3.85-4.08-6.2-6.58l5.23-.64-7.67-10.22,4.28-.57c-1.71-3.15-4.58-5.35-5.74-8.61l.72-.74,5.27.74a5.66,5.66,0,0,0,1.07.31c.3-.63-.26-.61-.63-.73-2.06-3.39-5.55-5.68-7.33-9.55l3.76-.51c-2.57-3.22-5.83-5.58-7.64-9.18,1.15-1.84,3.2.54,4.35-1a1.13,1.13,0,0,0-.12.18l.2,0a94.8,94.8,0,0,1-19.21-27c-2.48,3.71-2.11,8.39-4.61,12a53.53,53.53,0,0,1-8.08,9.56c1.44,1.26,2.65-1.08,4.39.21-5.21,5.72-4.33,14.93-11.6,19.59a9.66,9.66,0,0,0-1.46,1.51c2.55,1.12,4.68-.63,7.19-.21-1.61,4-4.59,6.81-7.61,10.28h6c-2.13,5.7-6.34,9.49-10.06,13.71,4.91,1.33,5.1,1.59,2.53,5.66-1.58,2.48-3.56,4.71-5.42,7.14,1,1.08,3-.22,3.38,1.15.44,1.61-1,2.71-2.17,3.65-3.32,2.73-6.69,5.4-11.17,9,4.75-.49,8.22-1.34,12.68-.69-4.08,4.24-8.48,7.14-13.81,10.51h8.87c-5.59,5.39-30.75,4.29-39.47-1.47.68-.82,4.87-.31,1.32-2.93a22.85,22.85,0,0,1-6.14-6.4c1.5-1.58,3.71.27,5.28-1.48-2.12-4-5.19-7.48-8.21-11.5h6.2a93.23,93.23,0,0,1-11.44-11.9l5.22-.46-7.73-10.08,4.26-.86c-1.73-3.06-4.67-5.23-5.74-8.59.23-.23.46-.47.68-.72l6.79,1.32c-2.89-3.77-6.34-6.49-8.5-10.52l3.93-.47c-2.63-3.22-5.91-5.59-7.7-9.22,1.1-1.84,3.22.62,4.31-1,0,0,0,.17,0,.17l.14-.06a94.3,94.3,0,0,1-19.53-27.5c-1.73,9.38-5.73,16.65-12.49,22.23,1.54,1.2,2.81-1.14,4.64.24-5.43,5.48-4.31,14.71-11.46,19.26a25.16,25.16,0,0,1-3,1.34c3.88,1.52,6-.22,8.43.24-1.38,4-4.47,6.58-7.07,9.86,1.7,1.31,3.59-.15,5.14.45.59,1.42-.57,2.18-1,3.16-1.42,3.11-3,3.44-5.06.43s-4.45-5.76-7.14-9.2l6-.57-8.43-12.12.81-.7,10.14,2c-4.28-4.78-8.76-8.88-12-14.17,1.65-1,3.54.61,5.56-.88-4.09-3.81-8.2-7.64-10.93-12.65,2.29-1,4.26,1.41,6.21-.19-.1.22-.19.44-.28.66l.64.06-.5-.64c-2.78-2.6-5.46-5.33-8.37-7.78s.73-1.83,1.27-2.8c-7.65-7-14.46-14.59-18-25.24a49.25,49.25,0,0,1-16.53,28.43c2.2,1.18,3.53-.76,5.59-.33-1.63,4.85-4.66,8.66-8.08,12.58,1.57,1,3.88,1.48,1.62,4.24a106.39,106.39,0,0,1-12.32,13l11.28-1.87c-2.48,5.71-6.22,9.61-10.56,14.11l8.89-.41a63.68,63.68,0,0,1-13.92,18.17c.77,1.59,1.88,1.13,2.77,1.12,3-.06,3.4,1.33,2.23,3.75a36.75,36.75,0,0,1-9,11.75c.22.45.28.87.49,1,1.4.64,3.74-.92,4.3,1.21.49,1.9-1.29,3.32-2.7,4.46-4.79,3.87-9.65,7.65-14.48,11.46l.24,0-.17-.14c5,1.22,10.08-1.59,16.08.17-6.52,4.95-10.9,11.57-20.14,11.41-21.33-.36-42.67-.38-64,.07-5.63.12-5.17-5.12-8.36-6.83,4.54-3.5-1-5-1.5-7.41-.39-1.82,1.89-.31,2.06-1.65-1.25-1.23-2.65-2.44-3.83-3.83-.68-.79-3.12-2,.21-2.71.66-.14.3-.89-.07-1.08-4.1-2.2-.13-7.89-4.73-9.52,1.48-2,2.83.14,3.61-.47-4.25-9.52-8-19.26-14.89-26.77-4.74,6.9-6,16.25-11.55,23.87.52.92,1.93-.51,3.08.66l-4.34,5.61-15.29-20.31c4-.33,7.57,1.79,12,.82a154.74,154.74,0,0,1-21.05-21.53c3.2-.86,6.41.37,9.67-1.24-4.85-5.94-9.83-11.45-14-18.07,2.72-1.23,5.43-.15,8.4-.93-4.59-5.79-9.43-11.19-12.87-17.81,5.73-.25,10.54,3.61,16.12,2.56,0,0-.12.15-.12.15h.2a98.93,98.93,0,0,1-17.22-19.49c2.91-.41,5.59,1.53,8.24-.62-5.71-5.21-11.2-10.5-15-17.2l.79-.67,9.28,1.54-15.21-13.73c1-1.77,2.72-.48,4.22-1.27-5.24-5.31-10.42-10.2-14.74-15.89s-7.15-12.21-9.57-20.44c-5.16,7.81-4.46,16.34-9,22.94a154.31,154.31,0,0,1-15.11,18.08l-1.27.23c.15.14.3.41.45.41.46,0,.91-.09.72-.74,3,.67,5.27-1.53,8.69-2-2.57,7.13-6.73,12.67-11.47,17.9,4.76,2.06,4.76,2.06,1.84,6.12-4.35,6.08-9.51,11.42-14.88,17.21l14.27-2.4c-3.73,7.62-8.71,13.46-14.85,19.26,4,.65,7.51-.32,11-.59l.77.83c-4.38,9.66-11.43,17.33-18.89,24.59.46.57.64,1,.86,1,8.54,1.06,8.73,1.51,4.16,9.32a56.41,56.41,0,0,1-11.15,13.08l1.84.47c1.93.51,4.82-1.26,5.72,1.23s-1.38,4.24-3,5.87c-6.49,6.32-6.62,6.31-12.89-.48-1.33-1.44-2.57-2.95-4.28-4.91l7.22-.59c-3.46-4.69-7.41-8.48-10.21-13.64l5.76-.35c-2.68-4.46-6.45-7.84-8.77-12.73,3.94-.52,7.14,1.83,11.1,1.71-4.18-4.6-8.52-8.65-11.9-14.17h6c-4.33-4.64-8.7-8.23-11.24-13.34,2.22-1,4,1,6.74.31-1.92-1.74-4.11-2.91-5-4.71-1.06-2.25-7.28-1.93-3.48-6.63a8.75,8.75,0,0,0-1.3-1.4c-6.78-6.5-12.78-13.53-15.79-23.31-3.25,11.4-8.1,21.59-17.82,28.92,2.3.68,3.81-1,5.65-.87l.43.41c-.74,3.91-3.4,6.72-5.58,9.81-.7,1-3.42,2.05.09,3.4,1.81.71,0,2.19-.66,3.11-3,4.53-7,8.31-11.77,12.86l11-1.66c-2.39,5.71-6.53,9.54-10.61,14.33l8.89-.87c-3.36,7.48-8.57,13-13.79,18.41.39,1.27,1.27,1.27,2.06,1.21,4.44-.35,3.7,1.87,2.35,4.54a38.42,38.42,0,0,1-8.54,10.9c.24,1.31,1.25.78,1.95.92,1,.21,2.57-.53,2.89,1.11a3.33,3.33,0,0,1-1.29,3.1c-3.42,2.9-6.89,5.75-10.35,8.59-1.77,1.46-3.57,2.86-6.27,5,6.19-1,11.16-1.49,16.13-1.07-10.15,15.29-25.55,13.81-40.63,13.31-3.39-.12-3.39-.11-6.75-4.72h6c-2.37-4.84-5.61-8.28-8.58-12.44h6.24l-12-10c2.08-2.72,3.8-1.64,5.2-2.51-1.58-3.75-5.41-6.1-6.89-10.15l4-.42c-1.92-3.48-5.08-5.86-6.29-9.51,2.59-.68,4.77,1.81,7.24.53,0,.22,0,.44,0,.66l.58-.14-.65-.44c-2.13-3.51-5.76-5.88-7.64-9.83l3.88-.39c-2.54-3.34-6-5.6-7.59-9.3,1-1.47,2.49.09,3.62-.56,0-.26,0-.64-.13-.82-7.08-7.87-13.68-16.07-18.64-26.16-1.27,8.5-6.1,14.94-11.44,21.09l-1.08.59c.15,0,.31.16.45.14.44-.09,1.07-.11.51-.83,2.21.1,4.33.25,2,3.22-4.41,5.72-3.76,14.58-12,18,2.66,2.11,5.12-1,7.14.9l-.13-.08c-1,3.9-4.25,6.16-6.61,9.36,1.75,1.36,3.75-.36,5.76.38-2.36,5.43-6.18,9.48-10.08,13.43.94,1.87,3.9-.1,3.93,2.22s-1.47,4-2.87,5.63c-1,1.19-1.71,0-2.31-.64-1.84-1.87-3.61-3.81-5.82-6.17l5.37-.54-7.75-10,4.32-.84c-2-3.23-5-5.75-6.34-9.39,3-.61,5.5,2.35,8.21.34l-.86.36.32.45.52-.83c-3.82-2-5.81-5.72-8.89-9.31l4-.69c-2.57-3.28-6-5.69-7.75-9.45,1.19-1.18,2.57.32,3.74-.4a2.6,2.6,0,0,0-.23-.89c-6.46-8.17-13.85-15.7-18.52-26.07-1,8.6-6.06,14.87-11.21,21.07l-1.19.39c.16.15.32.4.49.41.46,0,.89-.06.81-.69.55.92,3.56-1.58,2.37,1.63-1.32,3.61-4.11,6.26-4.6,10.71-.37,3.38-4.88,6.3-7.58,9.48,2.36.7,4.52-.8,7-.56-1.49,4.26-4.88,6.9-7.38,10.41h4.83l.91.75c-2.34,4.84-6,8.71-9.65,12.55.57,2.15,3.52,0,3.79,2.14.25,1.92-1.14,3.41-2.13,4.87-1.39,2-3.07,3.86-4.63,5.77.24,1.78,4-.28,3,2.64a6.61,6.61,0,0,1-4.54,4.28c-1.78.4-3.56-3.3-3.42-3.49,3.22-4.18-3-4.39-2.78-6.69.45-4.56-1.69-8.21-3-12.23-.82-2.5,2.57.48,2.87-1.43l-.18.64.6,0-.55-.55c-3.19-2.24-4.09-6.55-4.53-9.29-1.19-7.38-8.52-10.57-9.67-17.43-5.38,7.68-6.5,17.18-12.12,24.6l3.22.33a39.75,39.75,0,0,0-2.23,3.37c-.41.78-3.33,1.75.42,2.56,2,.44-.41,2.36-1,3.23-2.85,3.9-2.79,8.54-3.78,12.93-.69,3.1-4.35,3.74-6.26,6.6H1011c-1.48,3.06-4.56,3.7-6.42,6.13l2.61.37c.16.49,0,.54-.45.54-14.15.05-28.32-.32-42.43.43-5.71.3-5.71-4.58-8.7-6.56,3.4-3.56-.44-5.44-1.85-7.85-.8-1.38,4.19-.38,1-2.67-1.2-.86-3.18-2.82-3-3.08,2.24-3.37-3-5.27-1.46-8.47,1-2-2.11-2.71-2-4.62a6,6,0,0,0,.59-.64l2.11.2c-4-9.4-7.86-19-14.83-26.57-4.83,7-6.18,16.26-11.43,23.8,3.47-.39,3,1,1.29,3.25-.6.77-3.67,1.85.14,3.17,1.38.48-1.17,2.45-1.63,3.85-.54,1.61-4.63,2.4-1.22,5,.14.11-.25,1.29-.67,1.66-1,.85-1.4-.23-1.84-.81-1.6-2.1-3.15-4.23-5.05-6.79h5.64c-3.58-4.36-7.81-7.31-10.8-11.94l4.9-.63-7.78-10.15,4.38-.66c-1.72-3.23-4.85-5.29-5.77-8.78a5,5,0,0,0,.58-.64l7.12,1.44c-3.06-3.72-6.46-6.47-8.66-10.55l4.19-.59c-3.33-3.07-6.16-5.82-8.19-9.23,1.25-1.41,2.66.2,3.8-.59a2.34,2.34,0,0,0-.16-.85c-6-8.54-14.46-15.37-18.29-26.06-2,8.6-6,15.87-12.77,21.42,1.15,1,2-.24,3-.09l.75.93c-.66,3.94-4.31,6.33-4.47,11.09-.11,3.49-4.6,6.9-8.3,9.24l.27.31-.29-.38c2.41,1.65,4.78-.37,7.51-.07-1.15,4.13-4.49,6.68-7.18,10.27h5.9c-2.17,5.61-6.19,9.37-9.83,13.45,4.54,2,4.7,2.25,2,6.34-1.52,2.32-3.4,4.41-5.45,7,4.91-.06,4.38,1.74,1.8,4.29-6,5.92-6.47,5.94-12.22-.22-1.21-1.3-2.36-2.65-4-4.54h12.33c-5-8.45-10.72-15.63-16.84-23.12,4.32-.47,7.86,1.77,12.2.69a153.73,153.73,0,0,1-21-21.54c3.38-.77,6.61.39,9.7-1.16-4.83-6-9.93-11.44-13.88-18.06,2.64-1.37,5.4,0,8.24-1.18-4.71-5.5-9.22-11-13.17-18l16.33,3.76c-5.86-6.82-12.2-12-16-19.25a8.94,8.94,0,0,0,.66-.71c2.08-.14,4.26.95,6.67-.66-5.87-5.37-11.52-10.79-15.74-18.41l10.85,2.13-15.29-13.81c1-1.78,2.46-.69,4.19-1.42-10.58-10-20.54-20.22-23.9-35-3.18,1.12-3.63,3.59-3.91,5.67-1.79,13.37-9.6,23.11-18.92,32-.57.54-1.49.73-1.92,1.44,3.34,1.16,5.65-1,8.86-1.49-2.66,7.15-6.69,12.7-11.81,18.28,5.69.81,4.31,3.16,1.94,6.18-4.76,6-9.71,11.85-15.91,16.48l.21,0-.14-.12c5.17,1.48,9.87-2.11,15.27-1.44-3.63,7.18-8.62,13.07-14.89,19.06a47.55,47.55,0,0,0,12.85-1.32,87.57,87.57,0,0,1-19.8,25.79c.35,1.72,1.54,1.42,2.44,1.46,6.39.28,6.76.89,3.94,6.49A53.51,53.51,0,0,1,735,597.75c.33,1,1,.86,1.63,1.07,1.85.64,5.52-1.72,5.31,2s-3.4,6.08-6.63,7.52c-1.29.58-2.22-1.62-3.22-2.63-1.49-1.51-2.82-3.16-4.69-5.28l7.48-.57-10.78-13.5,6.31-.53c-2.91-4.37-6.62-7.9-8.95-12.79,3.89-.42,7.11,1.9,11.11,1.81-4-4.57-8.35-8.42-11.35-13.47,1.54-1.3,3.3,0,5.27-1.06-4-4.16-8.39-7.89-11.07-13.06,2.39-.95,4.29,1.28,6.84.34-2.11-1.9-4.59-3.36-5.85-5.52-.93-1.6-6.75-1.65-2.35-5.52a11.66,11.66,0,0,0-.94-1.08c-7.05-6.7-13.35-13.92-16.46-24a56.11,56.11,0,0,1-16.29,28.39c-.48.11-1.38,0-1.05.75.21.49,1.08.3,1.55-.22l3.39-.64.91.68a35.16,35.16,0,0,1-6,9.71c-.58.72-2,2-1.29,2.28,5.81,2.62.14,4.54-.66,5.88-2.37,3.95-5.9,7.08-9.87,10.46,3.88.7,6.91-1.53,10.51-.73-2.32,5.2-6.08,9.13-10.2,13.34,3.12,1.07,5.75-.78,8.62-.16-3.27,7.27-8.58,12.9-13.87,18.38.79,1.42,1.89,1.07,2.82,1,3.21-.12,3.21,1.49,2.13,3.77a38.91,38.91,0,0,1-9,11.73c1.35,2,4.59-.62,4.88,2.23.21,2.13-1.74,3.46-3.27,4.74s-3.37,2.72-5.07,4.06c-8.08,6.41-8.09,6.42-15.36-1.11-1.7-1.77-3.29-3.64-5.36-5.94h12.06c-4.59-8.73-10.78-15.54-16.39-23.22,4.12-.33,7.56,1.58,12.05.82a155.23,155.23,0,0,1-21-21.45c3.23-1.12,6.49.19,9.66-1.33-5.08-6-10.1-11.68-14.45-18.65h9.18c-5.23-6.18-9.77-11.67-13.72-18.75L627,541.26c-5.44-6.46-11.08-12.54-16-20,3-.1,5.57,1.28,8.56-.35-6.12-5.33-11.67-10.83-15.59-17.85,3.69-1,6.67,2.26,10,.51-.06.12-.11.25-.17.37l.2-.32-15-12.81c1.17-1.76,2.75-.56,4.14-1.69-10.58-9.86-20.4-20.17-23.73-34.82-2.93,1-3.54,3.25-3.81,5.32C573.69,474,565,484.22,554.93,493.53c2.53.31,2.53.31,7-1.17C562.22,492.69,562.5,493,562.78,493.34Zm200.51,1.17c-.1-.1-.2-.25-.3-.25s-.22.12-.34.19c.1.1.18.26.28.27S763.15,494.6,763.29,494.51ZM1553,542.29l-.2.24.34,0Z" transform="translate(-31.48 -16.03)"/><path class="cls-4" d="M279.62,626.81c4.78,1.13,9.65-1.12,14.83.29a62.16,62.16,0,0,1-12.16,9.82c-4.28,2.72-4.07-3.08-7.53-3.14,2.21-2.31,4.31-.59,6.06-2.09-.42-1.49-2.09-3.05-1.1-5Z" transform="translate(-31.48 -16.03)"/><path class="cls-4" d="M640.78,635.72c1.94.38,3.89,1.07,5.82,1,1.06,0,4.59,2.53,3.21-2-.23-.74,1-.63,1.49-.63,3.42-.06,6.84,0,10.31,0-7.6,9.41-13.24,9.86-20.73,1.7Z" transform="translate(-31.48 -16.03)"/><path class="cls-4" d="M524,641.33c-10.75,7.51-16.36,7.82-21.33,1.32A116.27,116.27,0,0,1,524,641.33Z" transform="translate(-31.48 -16.03)"/><path class="cls-4" d="M1412.19,619.69c1.65,1.18.06,1.84-.44,2.67-.68,1.11-3,1.92-.34,3.56.84.51-.14,1.81-.73,2.59-.94,1.26-1.74.39-2.41-.3-2.37-2.47-4.7-5-7.88-8.37h11.9Z" transform="translate(-31.48 -16.03)"/><path class="cls-4" d="M366.9,608.8c3.53-1.17,5.88,2.34,9.16,2.36C372.7,617.51,372.42,617.44,366.9,608.8Z" transform="translate(-31.48 -16.03)"/><path class="cls-4" d="M1290.76,621.54h6.79c-.74,2.13-2.33,3.7-4,3.84C1292.22,625.49,1291.23,623.45,1290.76,621.54Z" transform="translate(-31.48 -16.03)"/><path class="cls-4" d="M288.81,641.32c-3.37,2.93-6.17,3.82-9.07.24C282.6,642.62,285.25,640.72,288.81,641.32Z" transform="translate(-31.48 -16.03)"/><path class="cls-4" d="M848.83,635.52l7.25,1.52C853.42,638.94,853,638.83,848.83,635.52Z" transform="translate(-31.48 -16.03)"/><path class="cls-4" d="M1412.29,619.84c-.6-2.47,0-3.69,2.86-2.54-.82,1.09-.56,3.31-3,2.39A1.19,1.19,0,0,0,1412.29,619.84Z" transform="translate(-31.48 -16.03)"/><path class="cls-4" d="M640.88,635.75l-.87-.06.76,0S640.88,635.75,640.88,635.75Z" transform="translate(-31.48 -16.03)"/><path class="cls-4" d="M1061.15,603.74c.25-.16.59-.52.74-.45.6.26.4.75.17,1.2Z" transform="translate(-31.48 -16.03)"/><path class="cls-4" d="M948.31,614.09l-.53-.77,1.12.14A7,7,0,0,1,948.31,614.09Z" transform="translate(-31.48 -16.03)"/><path class="cls-4" d="M1754,588.29c-.14-.33-.28-.65-.43-1l1.15.24Z" transform="translate(-31.48 -16.03)"/><path class="cls-4" d="M1647.13,588.21l-.47-.9,1.15.19C1647.59,587.74,1647.36,588,1647.13,588.21Z" transform="translate(-31.48 -16.03)"/><path class="cls-4" d="M906.34,588.07l-.69-.56,1.27-.07A5.7,5.7,0,0,1,906.34,588.07Z" transform="translate(-31.48 -16.03)"/><path class="cls-4" d="M263.45,588l-.68-.53,1.24-.09A3.31,3.31,0,0,1,263.45,588Z" transform="translate(-31.48 -16.03)"/><path class="cls-4" d="M1595.73,575.5l-.12-1.1.93.4Z" transform="translate(-31.48 -16.03)"/><path class="cls-4" d="M1236.05,539.69c.3-.5.65-.69,1-.12a6,6,0,0,1-.62.53Z" transform="translate(-31.48 -16.03)"/><path class="cls-4" d="M684.25,539.81l1-.47c0,.38-.06.77-.08,1.15C684.85,540.27,684.55,540,684.25,539.81Z" transform="translate(-31.48 -16.03)"/><path class="cls-4" d="M821.24,522.19c-.43-.15-.9-.39-.51-.87.13-.16.76.1,1.17.16A8.94,8.94,0,0,1,821.24,522.19Z" transform="translate(-31.48 -16.03)"/><path class="cls-4" d="M1370.74,503.51c-.24-.43-.56-.91.11-1.21.12-.05.45.35.68.54Z" transform="translate(-31.48 -16.03)"/><path class="cls-4" d="M876.92,562.33l1.22-.13c-.16.35-.31.7-.47,1.06Z" transform="translate(-31.48 -16.03)"/><path class="cls-4" d="M1315.9,549.47l1.13-.13-.36,1Z" transform="translate(-31.48 -16.03)"/><path class="cls-4" d="M562,492.36l1.24-.17c-.14.38-.27.77-.41,1.15C562.5,493,562.22,492.69,562,492.36Z" transform="translate(-31.48 -16.03)"/><path class="cls-4" d="M1119.51,594.07l-.1-.73.47,0-.5.63Z" transform="translate(-31.48 -16.03)"/><path class="cls-1" d="M1321.33,494c.19.65-.26.75-.72.74-.15,0-.3-.27-.45-.41l1.27-.23Z" transform="translate(-31.48 -16.03)"/><path class="cls-1" d="M459.41,572c.39.59,0,.74-.48.79-.19,0-.4-.19-.6-.3l1.14-.43Z" transform="translate(-31.48 -16.03)"/><path class="cls-1" d="M1066.47,572.07c.08.63-.35.74-.81.69-.17,0-.33-.26-.49-.41l1.19-.39Z" transform="translate(-31.48 -16.03)"/><path class="cls-1" d="M1122.31,571.94c.56.72-.07.74-.51.83-.14,0-.3-.09-.45-.14l1.08-.59Z" transform="translate(-31.48 -16.03)"/><path class="cls-1" d="M680.86,540.45c-.47.52-1.34.71-1.55.22-.33-.75.57-.64,1.05-.75C680.53,540.1,680.7,540.27,680.86,540.45Z" transform="translate(-31.48 -16.03)"/><path class="cls-1" d="M1105.17,597.7l-.52.83-.32-.45.86-.36Z" transform="translate(-31.48 -16.03)"/><path class="cls-1" d="M1160.37,598l.65.44-.58.14c0-.22,0-.44,0-.66Z" transform="translate(-31.48 -16.03)"/><path class="cls-1" d="M497.75,597.83l.14.83-.55-.36.55-.52Z" transform="translate(-31.48 -16.03)"/><path class="cls-1" d="M399.45,613l.63.47-.59.12c0-.22.05-.44.08-.66Z" transform="translate(-31.48 -16.03)"/><path class="cls-1" d="M1041.43,613l.55.55-.6,0,.18-.64Z" transform="translate(-31.48 -16.03)"/><path class="cls-1" d="M1394.75,540.82h-.2s.11-.16.12-.15Z" transform="translate(-31.48 -16.03)"/><path class="cls-1" d="M1760.47,587.87c.37.12.93.1.63.73a5.66,5.66,0,0,1-1.07-.31Z" transform="translate(-31.48 -16.03)"/><path class="cls-1" d="M864.88,583.52l.29.38-.27-.31A.12.12,0,0,1,864.88,583.52Z" transform="translate(-31.48 -16.03)"/><path class="cls-1" d="M1520,635.65l.17.14-.24,0Z" transform="translate(-31.48 -16.03)"/><path class="cls-1" d="M222,583.5l0,.06Z" transform="translate(-31.48 -16.03)"/><path class="cls-1" d="M747.08,532.64l.14.12-.21,0Z" transform="translate(-31.48 -16.03)"/><path class="cls-1" d="M1753.69,567.84l-.2,0a1.13,1.13,0,0,1,.12-.18Z" transform="translate(-31.48 -16.03)"/><path class="cls-1" d="M1646.74,567.68l-.14.06s0-.18,0-.17Z" transform="translate(-31.48 -16.03)"/><path class="cls-1" d="M614,503.59l-.2.32c.06-.12.11-.25.17-.37Z" transform="translate(-31.48 -16.03)"/><path class="cls-1" d="M1595.43,549l.5.64-.64-.06c.09-.22.18-.44.28-.66Z" transform="translate(-31.48 -16.03)"/><path class="cls-1" d="M763.29,494.51c-.14.09-.26.22-.36.21s-.18-.17-.28-.27c.12-.07.23-.2.34-.19S763.19,494.41,763.29,494.51Z" transform="translate(-31.48 -16.03)"/><polygon class="cls-1" points="1521.48 526.25 1521.62 526.54 1521.28 526.5 1521.48 526.25"/></svg>